<svg width="16" height="20" viewBox="0 0 16 20" fill="none" xmlns="http://www.w3.org/2000/svg">
<path d="M14.8549 5.9479C14.8281 5.65361 14.5824 5.4279 14.2858 5.4279H11.4286V4.28503C11.4286 2.39417 9.89148 0.856445 8.00004 0.856445C6.10917 0.856445 4.57145 2.39417 4.57145 4.28503V5.4279H1.71429C1.41829 5.4279 1.172 5.65361 1.14515 5.9479L0.00228445 18.5194C-0.0120013 18.6788 0.0411419 18.8377 0.149714 18.956C0.257714 19.0748 0.410858 19.1422 0.57143 19.1422H15.4286C15.5892 19.1422 15.7424 19.0748 15.8504 18.956C15.9578 18.8377 16.0121 18.6794 15.9978 18.5194L14.8549 5.9479ZM5.71431 4.28503C5.71431 3.02446 6.74003 1.99931 8.00004 1.99931C9.26004 1.99931 10.2858 3.02446 10.2858 4.28503V5.4279H5.71431V4.28503ZM1.19772 17.9994L2.23601 6.57076H4.57145V7.87191C4.23088 8.07019 4.00002 8.43477 4.00002 8.85648C4.00002 9.48734 4.51202 9.99935 5.14288 9.99935C5.77374 9.99935 6.28574 9.48734 6.28574 8.85648C6.28574 8.43477 6.05489 8.07019 5.71431 7.87191V6.57076H10.2858V7.87191C9.94519 8.07019 9.71433 8.4342 9.71433 8.85648C9.71433 9.48734 10.2263 9.99935 10.8572 9.99935C11.4881 9.99935 12.0001 9.48734 12.0001 8.85648C12.0001 8.43477 11.7698 8.07019 11.4286 7.87191V6.57076H13.7641L14.8024 17.9994H1.19772Z" fill="black"/>
</svg>
