<svg width="20" height="20" viewBox="0 0 20 20" fill="none" xmlns="http://www.w3.org/2000/svg">
<path d="M9.99983 0C4.47712 0 0 4.4798 0 10.0056C0 15.5312 4.47712 20.0115 9.99983 20.0115C15.5225 20.0115 20 15.5314 20 10.0056C19.9998 4.4798 15.5225 0 9.99983 0ZM13.4149 6.40033C13.4149 6.49583 13.3377 6.57334 13.242 6.57334H10.8077V7.88247H13.2419C13.3375 7.88247 13.4148 7.95997 13.4148 8.05547V10.4909C13.4148 10.5865 13.3375 10.6639 13.2419 10.6639H10.9806V16.0084C10.9806 16.104 10.9033 16.1814 10.8077 16.1814H8.50711C8.41149 16.1814 8.3342 16.104 8.3342 16.0084V10.664H6.75779C6.66217 10.664 6.58488 10.5867 6.58488 10.491V8.05565C6.58488 7.96015 6.66217 7.88264 6.75779 7.88264H8.3342V6.89513C8.3342 6.88094 8.33593 6.86727 8.33904 6.85412C8.34042 5.44742 8.64111 3.83812 10.9444 3.83086C10.9494 3.83051 10.9548 3.83016 10.96 3.83016H13.2419C13.3375 3.83016 13.4148 3.90767 13.4148 4.00317V6.40033H13.4149Z" fill="white"/>
</svg>
