<svg width="20" height="20" viewBox="0 0 20 20" fill="none" xmlns="http://www.w3.org/2000/svg">
<g clip-path="url(#clip0_1701_23355)">
<path fill-rule="evenodd" clip-rule="evenodd" d="M0 10C0 4.47717 4.47717 0 10 0C15.5228 0 20 4.47717 20 10C20 15.5228 15.5228 20 10 20C4.47717 20 0 15.5228 0 10ZM10.0005 4.66667C8.55204 4.66667 8.37025 4.673 7.80138 4.69887C7.23358 4.72487 6.84604 4.81479 6.50692 4.94667C6.15613 5.08287 5.85858 5.26512 5.56212 5.56167C5.26546 5.85812 5.08321 6.15567 4.94654 6.50633C4.81433 6.84558 4.72433 7.23325 4.69879 7.80079C4.67333 8.36971 4.66667 8.55158 4.66667 10C4.66667 11.4485 4.67312 11.6297 4.69887 12.1986C4.725 12.7664 4.81487 13.154 4.94667 13.4931C5.083 13.8439 5.26521 14.1414 5.56179 14.4379C5.85812 14.7345 6.15567 14.9172 6.50625 15.0535C6.84558 15.1853 7.23325 15.2752 7.80092 15.3012C8.36983 15.3271 8.5515 15.3335 9.99983 15.3335C11.4484 15.3335 11.6296 15.3271 12.1985 15.3012C12.7663 15.2752 13.1543 15.1853 13.4937 15.0535C13.8443 14.9172 14.1414 14.7345 14.4377 14.4379C14.7344 14.1414 14.9167 13.8439 15.0533 13.4932C15.1845 13.154 15.2745 12.7663 15.3011 12.1987C15.3267 11.6298 15.3333 11.4485 15.3333 10C15.3333 8.55158 15.3267 8.36983 15.3011 7.80092C15.2745 7.23313 15.1845 6.84558 15.0533 6.50646C14.9167 6.15567 14.7344 5.85812 14.4377 5.56167C14.1411 5.265 13.8444 5.08279 13.4933 4.94667C13.1533 4.81479 12.7655 4.72487 12.1977 4.69887C11.6288 4.673 11.4478 4.66667 9.99883 4.66667H10.0005Z" fill="white"/>
<path fill-rule="evenodd" clip-rule="evenodd" d="M9.60598 6.40109C9.7229 6.40092 9.85337 6.40109 9.99994 6.40109C11.1724 6.40109 11.3114 6.40531 11.7744 6.42635C12.2026 6.44594 12.435 6.51748 12.5898 6.57759C12.7947 6.6572 12.9408 6.75234 13.0944 6.90606C13.2481 7.05978 13.3433 7.20619 13.423 7.41117C13.4832 7.56578 13.5548 7.79821 13.5743 8.22642C13.5953 8.6894 13.5999 8.8285 13.5999 10.0006C13.5999 11.1727 13.5953 11.3118 13.5743 11.7748C13.5547 12.203 13.4832 12.4354 13.423 12.59C13.3435 12.795 13.2481 12.9409 13.0944 13.0946C12.9407 13.2483 12.7948 13.3434 12.5898 13.423C12.4352 13.4834 12.2026 13.5548 11.7744 13.5744C11.3115 13.5954 11.1724 13.6 9.99994 13.6C8.82734 13.6 8.68836 13.5954 8.22544 13.5744C7.79729 13.5546 7.56489 13.4831 7.41002 13.4229C7.20507 13.3433 7.05868 13.2482 6.90498 13.0945C6.75128 12.9408 6.65615 12.7947 6.57638 12.5897C6.51627 12.435 6.44464 12.2026 6.42515 11.7744C6.40409 11.3114 6.3999 11.1724 6.3999 9.9995C6.3999 8.82664 6.40409 8.6883 6.42515 8.22532C6.44471 7.79711 6.51627 7.56468 6.57638 7.40987C6.65597 7.20492 6.75128 7.05851 6.90498 6.90479C7.05868 6.75107 7.20507 6.65593 7.41002 6.57612C7.56482 6.51573 7.79729 6.44436 8.22544 6.4247C8.63055 6.40641 8.78754 6.40092 9.60598 6.39999V6.40109ZM12.344 7.13033C12.0531 7.13033 11.8171 7.36615 11.8171 7.65719C11.8171 7.94815 12.0531 8.18422 12.344 8.18422C12.635 8.18422 12.871 7.94815 12.871 7.65719C12.871 7.36622 12.635 7.13033 12.344 7.13033ZM9.99994 7.74612C8.7545 7.74612 7.74476 8.75603 7.74476 10.0016C7.74476 11.2472 8.7545 12.2566 9.99994 12.2566C11.2454 12.2566 12.2547 11.2472 12.2547 10.0016C12.2547 8.75603 11.2454 7.74612 9.99994 7.74612Z" fill="white"/>
<path fill-rule="evenodd" clip-rule="evenodd" d="M9.9998 8.79999C10.6625 8.79999 11.1998 9.33723 11.1998 9.99999C11.1998 10.6627 10.6625 11.2 9.9998 11.2C9.33702 11.2 8.7998 10.6627 8.7998 9.99999C8.7998 9.33723 9.33702 8.79999 9.9998 8.79999Z" fill="white"/>
</g>
<defs>
<clipPath id="clip0_1701_23355">
<rect width="20" height="20" fill="white"/>
</clipPath>
</defs>
</svg>
