<svg width="20" height="20" viewBox="0 0 20 20" fill="none" xmlns="http://www.w3.org/2000/svg">
<path d="M9.99974 0C4.47726 0 0 4.47988 0 10.0056C0 15.5315 4.47709 20.0115 9.99974 20.0115C15.5226 20.0115 20 15.5315 20 10.0056C19.9998 4.47988 15.5226 0 9.99974 0ZM5.85031 4.51275C6.53053 4.51275 7.08228 5.0162 7.08228 5.6373C7.08228 6.2584 6.53053 6.76186 5.85031 6.76186C5.16975 6.76186 4.61835 6.2584 4.61835 5.6373C4.61835 5.0162 5.16975 4.51275 5.85031 4.51275ZM7.09161 14.1311H4.65743V7.77569H7.09161V14.1311ZM15.3631 14.1311H12.9172V10.6364C12.9172 10.2374 12.8432 9.95507 12.6957 9.78933C12.548 9.62393 12.3407 9.54089 12.0739 9.54089C11.7788 9.54089 11.5393 9.65265 11.356 9.87618C11.1726 10.0997 11.0811 10.5006 11.0811 11.0791V14.1311H8.64674V7.77569H10.9134V8.81079C11.2521 8.38814 11.5952 8.08589 11.942 7.90423C12.2889 7.72275 12.7113 7.63209 13.2098 7.63209C13.8838 7.63209 14.4109 7.83243 14.7919 8.23347C15.1724 8.63433 15.363 9.2537 15.363 10.0916V14.1311H15.3631Z" fill="white"/>
</svg>
