<svg width="16" height="18" viewBox="0 0 16 18" fill="none" xmlns="http://www.w3.org/2000/svg">
<path d="M8 9C8.86529 9 9.71115 8.74341 10.4306 8.26268C11.1501 7.78195 11.7108 7.09867 12.042 6.29924C12.3731 5.49982 12.4597 4.62015 12.2909 3.77148C12.1221 2.92281 11.7054 2.14326 11.0936 1.53141C10.4817 0.919555 9.70219 0.502877 8.85352 0.334066C8.00485 0.165256 7.12519 0.251896 6.32576 0.583029C5.52633 0.914162 4.84305 1.47492 4.36232 2.19438C3.88159 2.91385 3.625 3.75971 3.625 4.625C3.625 5.78532 4.08594 6.89812 4.90641 7.71859C5.72688 8.53907 6.83968 9 8 9ZM8 1.5C8.61807 1.5 9.22225 1.68328 9.73616 2.02666C10.2501 2.37004 10.6506 2.8581 10.8871 3.42912C11.1236 4.00013 11.1855 4.62847 11.065 5.23466C10.9444 5.84085 10.6467 6.39767 10.2097 6.83471C9.77267 7.27175 9.21585 7.56938 8.60966 7.68996C8.00347 7.81053 7.37513 7.74865 6.80411 7.51213C6.2331 7.2756 5.74504 6.87506 5.40166 6.36116C5.05828 5.84726 4.875 5.24307 4.875 4.625C4.875 3.7962 5.20424 3.00134 5.79029 2.41529C6.37634 1.82924 7.1712 1.5 8 1.5Z" fill="black"/>
<path d="M8.625 10.25H7.375C5.55164 10.25 3.80295 10.9743 2.51364 12.2636C1.22433 13.553 0.5 15.3016 0.5 17.125C0.5 17.2908 0.565848 17.4497 0.683058 17.5669C0.800269 17.6842 0.95924 17.75 1.125 17.75H14.875C15.0408 17.75 15.1997 17.6842 15.3169 17.5669C15.4342 17.4497 15.5 17.2908 15.5 17.125C15.5 15.3016 14.7757 13.553 13.4864 12.2636C12.197 10.9743 10.4484 10.25 8.625 10.25ZM1.7875 16.5C1.94118 15.1254 2.59594 13.8556 3.62667 12.9333C4.6574 12.0109 5.99184 11.5007 7.375 11.5H8.625C10.0082 11.5007 11.3426 12.0109 12.3733 12.9333C13.4041 13.8556 14.0588 15.1254 14.2125 16.5H1.7875Z" fill="black"/>
</svg>
