<svg width="20" height="20" viewBox="0 0 20 20" fill="none" xmlns="http://www.w3.org/2000/svg">
<path d="M10.0019 0C4.47778 0 0 4.47778 0 10.0019C0 15.526 4.47778 20.0037 10.0019 20.0037C15.526 20.0037 20.0037 15.526 20.0037 10.0019C20 4.47778 15.5222 0 10.0019 0ZM10.9694 13.3621C10.0619 13.2908 9.67935 12.8408 8.96681 12.4095C8.57679 14.4647 8.09676 16.4335 6.67917 17.4611C6.24039 14.3559 7.32046 12.0233 7.82299 9.5481C6.96794 8.10801 7.92424 5.21283 9.72811 5.92537C11.9482 6.80292 7.80424 11.277 10.5869 11.8357C13.4896 12.4208 14.6747 6.79917 12.8746 4.97281C10.2756 2.33265 5.30658 4.91281 5.91787 8.68929C6.06788 9.61185 7.02044 9.89312 6.30039 11.1682C4.63529 10.8007 4.14026 9.48809 4.20401 7.73673C4.30527 4.87155 6.77667 2.86518 9.25558 2.58766C12.3908 2.23514 15.331 3.73898 15.7397 6.68667C16.1935 10.0169 14.3221 13.6208 10.9694 13.3621Z" fill="white"/>
</svg>
