<svg width="18" height="20" viewBox="0 0 18 20" fill="none" xmlns="http://www.w3.org/2000/svg">
<path d="M7.20253 0.699463C3.22449 0.699463 -0.000976562 3.92496 -0.000976562 7.90297C-0.000976562 11.881 3.22449 15.1065 7.20253 15.1065C8.73221 15.1065 10.1509 14.6293 11.317 13.8166L16.7645 19.2633C16.8137 19.3125 16.8933 19.3125 16.9399 19.2667L17.9662 18.2404C18.0137 18.1929 18.0095 18.1116 17.9629 18.0649L12.5865 12.6886C13.7187 11.4166 14.406 9.74025 14.406 7.90294C14.406 3.92496 11.1806 0.699463 7.20253 0.699463ZM7.20253 14.259C3.69231 14.259 0.846487 11.4132 0.846487 7.90297C0.846487 4.39275 3.69228 1.54696 7.20253 1.54696C10.7128 1.54696 13.5585 4.39275 13.5585 7.90297C13.5585 11.4132 10.7127 14.259 7.20253 14.259Z" fill="black"/>
</svg>
