<svg width="20" height="20" viewBox="0 0 20 20" fill="none" xmlns="http://www.w3.org/2000/svg">
<path d="M9.99983 0C4.47712 0 0 4.4798 0 10.0056C0 15.5312 4.47712 20.0115 9.99983 20.0115C15.5227 20.0115 20 15.5314 20 10.0056C20 4.4798 15.5227 0 9.99983 0ZM14.8814 7.51985C14.8814 7.51985 15.1191 8.69888 14.266 10.7701C13.4125 12.8413 11.3006 14.8006 8.3916 14.9826C5.48241 15.1644 3.91552 13.8769 3.91552 13.8769C6.09762 14.0449 7.06263 13.1493 7.58014 12.8553C5.5521 12.5894 5.25833 11.064 5.25833 11.064C5.45406 11.1481 6.05543 11.1201 6.37722 11.0362C4.39136 10.5464 4.34934 8.54525 4.34934 8.54525C4.34934 8.54525 5.09043 8.92309 5.51008 8.85303C3.59373 7.39753 4.71297 5.4943 4.71297 5.4943C7.24453 8.26533 9.9298 8.11135 9.9298 8.11135L9.9419 8.12952C9.89314 7.93437 9.86686 7.73022 9.86686 7.52002C9.86686 6.13459 10.9894 5.01162 12.374 5.01162C13.1054 5.01162 13.7637 5.32528 14.2221 5.82526L14.238 5.81627C15.133 5.76021 15.7905 5.28445 15.7905 5.28445C15.518 6.08096 14.9391 6.45206 14.6974 6.57697C14.7005 6.58441 14.7035 6.59185 14.7062 6.59911C15.019 6.52334 15.8581 6.31798 16.0845 6.25016C15.5946 7.14564 14.8814 7.51985 14.8814 7.51985Z" fill="white"/>
</svg>
